<svg width="24" height="24" viewBox="0 0 24 24" fill="none" xmlns="http://www.w3.org/2000/svg">
  <!-- Speech bubble background with gradient -->
  <defs>
    <linearGradient id="bubbleGradient" x1="0%" y1="100%" x2="100%" y2="0%">
      <stop offset="0%" style="stop-color:#3B82F6;stop-opacity:1" />
      <stop offset="100%" style="stop-color:#F97316;stop-opacity:1" />
    </linearGradient>
    <filter id="shadow" x="-50%" y="-50%" width="200%" height="200%">
      <feDropShadow dx="0" dy="2" stdDeviation="2" flood-color="#000000" flood-opacity="0.1"/>
    </filter>
  </defs>
  
  <!-- Main speech bubble -->
  <path d="M20 2H4C2.9 2 2 2.9 2 4V16C2 17.1 2.9 18 4 18H6L8 20L10 18H20C21.1 18 22 17.1 22 16V4C22 2.9 21.1 2 20 2Z" 
        fill="url(#bubbleGradient)" 
        filter="url(#shadow)"/>
  
  <!-- Speech bubble outline for sharper look -->
  <path d="M20 2H4C2.9 2 2 2.9 2 4V16C2 17.1 2.9 18 4 18H6L8 20L10 18H20C21.1 18 22 17.1 22 16V4C22 2.9 21.1 2 20 2Z" 
        stroke="#000000" stroke-width="0.5" stroke-opacity="0.2" fill="none"/>

  <!-- Upward chevrons with gradient -->
  <g transform="translate(0, -1)">
    <path d="M12 7L16 11L12 15L8 11L12 7Z" fill="white" fill-opacity="0.7"/>
    <path d="M12 10L16 14L12 18L8 14L12 10Z" fill="white" fill-opacity="0.7"/>
  </g>
</svg>