<?xml version="1.0" encoding="UTF-8"?>
<svg id="Layer_1" data-name="Layer 1" xmlns="http://www.w3.org/2000/svg" viewBox="0 0 1200 382.74">
  <g>
    <path d="M501,137.52c.8.8,1.87,1.25,3.01,1.25h19.97c1.12,0,2.22-.45,3.01-1.25l73.01-73.01,73.01,73.01c.79.79,1.89,1.25,3.01,1.25h19.97c1.14,0,2.21-.44,3.01-1.25l16.76-16.77c.8-.8,1.25-1.87,1.25-3.01s-.44-2.21-1.25-3.01L603.01,1.98c-1.66-1.66-4.36-1.66-6.02,0l-112.76,112.76c-.8.8-1.25,1.87-1.25,3.01s.44,2.21,1.25,3.01l16.77,16.77Z" fill="#ffcd4d" stroke-width="0"/>
    <path d="M603.01,132.28c-1.66-1.66-4.36-1.66-6.02,0l-112.76,112.76c-.8.8-1.25,1.87-1.25,3.01s.44,2.2,1.25,3.01l16.77,16.77c.8.8,1.87,1.25,3.01,1.25h19.97c1.12,0,2.22-.45,3.01-1.25l73.01-73.01,73.01,73.01c.79.79,1.89,1.25,3.01,1.25h19.97c1.14,0,2.21-.44,3.01-1.25l16.77-16.77c.8-.8,1.25-1.87,1.25-3.01s-.44-2.21-1.25-3.01l-112.76-112.76Z" fill="#ffcd4d" stroke-width="0"/>
  </g>
  <g>
    <path d="M308.39,0c-77.04,0-139.72,60.98-139.72,135.94s62.68,135.94,139.72,135.94,139.72-60.98,139.72-135.94S385.43,0,308.39,0ZM390.37,135.94c0,47.12-36.78,85.45-81.99,85.45s-81.99-38.33-81.99-85.45,36.78-85.45,81.99-85.45,81.99,38.33,81.99,85.45Z" fill="#375289" stroke-width="0"/>
    <path d="M190.1,9.16h0c-.28-1.38-1.24-2.47-2.56-2.91-9.39-3.12-19.62-5.07-30.37-5.79l-.19-.02c-3.23-.29-32.37-2.48-59.9,9.15-14.87,6.28-27.42,15.48-37.31,27.36l-2.68,3.22-.03-33.32c0-2.06-1.61-3.72-3.67-3.72H3.78c-2.06,0-3.78,1.78-3.78,3.83v262.45c0,.06.01.12.03.18.04.09.1.16.17.21.08.05.16.08.26.08h59.19c.06,0,.12,0,.17-.02.09-.02.16-.06.21-.11.05-.05.08-.1.08-.16v-135.1c0-26.53,6.51-47.11,19.34-61.14,12.7-13.88,30.03-21,51.51-21.19,6.29.09,12.23.8,17.65,2.13.75.18,1.5.18,2.23.04,3.3.56,6.65-1.13,8.29-4.26,9.97-19.02,25.25-33.23,29.69-37.13,1.08-.95,1.56-2.37,1.27-3.79Z" fill="#375289" stroke-width="0"/>
    <path d="M1200,118.81c0-38.8-9.88-68.26-29.36-87.58-19.49-19.32-46.33-29.11-79.76-29.11-20.9,0-40.23,3.95-57.47,11.74-17.21,7.78-31.47,18.76-42.37,32.64l-1.35,1.71-.6-.98c-9.03-14.71-21.66-26.35-36.52-33.65-7.43-3.65-15.45-6.42-24-8.34-.02,0-.03,0-.05-.01-4.97-1.11-10.11-1.93-15.43-2.44-.02,0-.05,0-.07,0-1.29-.13-2.6-.23-3.91-.32-.01,0-.02,0-.03,0l-.19-.02c-1.21-.11-6.07-.48-13.13-.3-17.01.35-32.73,3.52-46.77,9.44-14.86,6.28-27.42,15.48-37.31,27.36h0s0,0,0,0l-2.68,3.22-.03-32.64.03-.21c0-.1-.02-.18-.03-.28v-.2c0-2.06-1.61-3.72-3.67-3.72h-49.61c-2.06,0-3.78,1.78-3.78,3.83v262.45c0,.06.01.12.03.18.04.09.1.16.17.21.08.05.16.08.26.08h59.19c.06,0,.12,0,.17-.02.09-.02.16-.06.21-.11.05-.05.08-.1.08-.16v-135.1h0c0-26.53,6.51-47.1,19.34-61.14,12.87-14.07,30.5-21.21,52.4-21.21,19.89,0,35.41,6.21,46.11,18.45,10.64,12.19,16.04,30.46,16.04,54.3l-.06,144.39v.5s.01.03.03.04c.04.02.1.04.17.05.08.01.16.02.26.02h59.23c.06,0,.12,0,.17,0,.09,0,.16-.01.21-.02.05-.01.08-.02.08-.04v-.41l.03-134.92c0-26.21,6.59-46.69,19.6-60.89,13.04-14.24,30.58-21.46,52.14-21.46,19.89,0,35.41,6.21,46.11,18.45,10.64,12.2,16.04,30.46,16.04,54.3v140.8c0,.1.02.19.03.29v3.79s.01.03.03.04c.04.02.1.04.17.05.08.01.16.02.26.02h59.12c.06,0,.12,0,.17,0,.09,0,.16-.01.21-.02.05-.01.08-.02.08-.04v-3.77c.02-.12.04-.23.04-.35V118.81Z" fill="#375289" stroke-width="0"/>
  </g>
  <g>
    <polygon points="28.02 352.43 15.13 330.06 5.93 330.06 24.08 360.41 24.08 381.69 31.82 381.69 31.82 360.41 50.34 330.06 41.22 330.06 28.02 352.43" fill="#375289" stroke-width="0"/>
    <path d="M87.29,332.09c-3.44-1.97-7.38-2.96-11.81-2.96s-8.32.97-11.75,2.92c-3.43,1.94-6.13,4.9-8.08,8.85-1.96,3.96-2.94,8.96-2.94,15.01s.98,10.9,2.94,14.87c1.96,3.97,4.65,6.96,8.08,8.96,3.43,2,7.35,3,11.75,3s8.37-.98,11.81-2.94c3.44-1.96,6.15-4.93,8.11-8.92,1.96-3.98,2.94-8.98,2.94-14.97s-.98-10.91-2.94-14.89c-1.96-3.98-4.66-6.96-8.11-8.94ZM86.35,370.63c-2.66,3.38-6.29,5.07-10.88,5.07s-8.11-1.69-10.78-5.07c-2.67-3.38-4.01-8.28-4.01-14.71s1.34-11.25,4.01-14.71,6.27-5.19,10.78-5.19,8.22,1.72,10.88,5.17c2.66,3.44,3.99,8.33,3.99,14.65s-1.33,11.42-3.99,14.79Z" fill="#375289" stroke-width="0"/>
    <path d="M142.09,362.68c0,4.59-1.15,7.9-3.44,9.93-2.3,2.03-5.3,3.04-9,3.04s-6.71-1.01-9.02-3.04c-2.31-2.03-3.46-5.33-3.46-9.93v-32.62h-7.7v32.62c0,4.32.82,7.98,2.45,10.96,1.63,2.98,3.96,5.25,6.99,6.79,3.02,1.54,6.61,2.31,10.74,2.31s7.75-.77,10.76-2.31c3.01-1.54,5.33-3.8,6.95-6.79s2.43-6.64,2.43-10.96v-32.62h-7.7v32.62Z" fill="#375289" stroke-width="0"/>
    <path d="M195.99,356.73c3.15-2.84,4.72-6.55,4.72-11.14s-1.57-8.39-4.72-11.25c-3.15-2.85-7.73-4.28-13.76-4.28h-18.48v51.63h7.7v-20.71h8.31l12.47,20.71h10.01l-14.31-21.23c3.3-.64,5.99-1.88,8.05-3.74ZM171.45,336.71h10.78c3.46,0,6.09.86,7.88,2.57,1.8,1.72,2.69,4.02,2.69,6.91s-.96,5.1-2.88,6.87c-1.92,1.77-4.72,2.65-8.39,2.65h-10.09v-19.01Z" fill="#375289" stroke-width="0"/>
    <path d="M276.69,357.88c-1.57-1.12-3.38-1.86-5.43-2.21,3.13-.81,5.52-2.28,7.15-4.42,1.63-2.13,2.45-4.67,2.45-7.62,0-2.46-.64-4.71-1.9-6.77-1.27-2.05-3.18-3.7-5.73-4.94-2.55-1.24-5.76-1.86-9.62-1.86h-19.98v51.63h20.02c3.49,0,6.39-.41,8.71-1.24,2.32-.82,4.17-1.93,5.55-3.3,1.38-1.38,2.36-2.9,2.96-4.58.59-1.67.89-3.36.89-5.07,0-2-.45-3.82-1.36-5.47-.91-1.65-2.14-3.03-3.71-4.15ZM251.32,336.71h12.08c3.05,0,5.41.7,7.07,2.09,1.66,1.39,2.49,3.29,2.49,5.69,0,2.54-.86,4.53-2.57,5.96-1.72,1.43-4.07,2.15-7.07,2.15h-12v-15.89ZM271.12,372.77c-1.58,1.46-4.13,2.19-7.64,2.19h-12.16v-15.68h12.16c3.32,0,5.82.72,7.5,2.15,1.67,1.43,2.51,3.32,2.51,5.67s-.79,4.22-2.37,5.67Z" fill="#375289" stroke-width="0"/>
    <polygon points="295.75 381.69 328.17 381.69 328.17 374.96 303.45 374.96 303.45 359.08 326.71 359.08 326.71 352.43 303.45 352.43 303.45 336.71 328.17 336.71 328.17 330.06 295.75 330.06 295.75 381.69" fill="#375289" stroke-width="0"/>
    <path d="M367.4,353.89l-10.94-4.01c-2.32-.81-4.03-1.72-5.13-2.72s-1.64-2.34-1.64-4.01c0-2.03.86-3.71,2.59-5.05,1.73-1.34,4.13-2.01,7.21-2.01s5.63.65,7.31,1.95c1.69,1.3,2.72,3.05,3.1,5.27h7.58c-.43-4.38-2.17-7.83-5.21-10.37-3.04-2.54-7.3-3.81-12.79-3.81-5.78,0-10.27,1.28-13.45,3.83-3.19,2.55-4.78,5.87-4.78,9.95,0,3.59,1.08,6.4,3.24,8.41,2.16,2.01,5.31,3.79,9.44,5.33l9.61,3.57c2.49.84,4.34,1.86,5.55,3.06,1.22,1.2,1.82,2.79,1.82,4.76,0,1.46-.47,2.76-1.4,3.89s-2.25,2.04-3.95,2.72-3.66,1.01-5.88,1.01-4.19-.34-6-1.03c-1.81-.69-3.26-1.75-4.36-3.18-1.09-1.43-1.64-3.27-1.64-5.51h-7.54c.08,3.73,1.02,6.83,2.82,9.32,1.8,2.49,4.17,4.36,7.11,5.61,2.94,1.26,6.17,1.88,9.69,1.88,4.19,0,7.74-.64,10.66-1.92,2.92-1.28,5.13-3.05,6.65-5.29,1.51-2.24,2.27-4.82,2.27-7.74,0-3.46-1.05-6.31-3.16-8.55-2.11-2.24-5.04-4.03-8.79-5.35Z" fill="#375289" stroke-width="0"/>
    <polygon points="384.47 336.71 400.97 336.71 400.97 381.69 408.67 381.69 408.67 336.71 425.16 336.71 425.16 330.06 384.47 330.06 384.47 336.71" fill="#375289" stroke-width="0"/>
    <polygon points="471.9 330.06 464.2 330.06 464.2 381.69 494.15 381.69 494.15 374.96 471.9 374.96 471.9 330.06" fill="#375289" stroke-width="0"/>
    <rect x="505.95" y="330.06" width="7.7" height="51.63" fill="#375289" stroke-width="0"/>
    <polygon points="530.74 381.69 538.44 381.69 538.44 358.95 560.81 358.95 560.81 352.35 538.44 352.35 538.44 336.71 562.63 336.71 562.63 330.06 530.74 330.06 530.74 381.69" fill="#375289" stroke-width="0"/>
    <polygon points="574.66 381.69 607.08 381.69 607.08 374.96 582.36 374.96 582.36 359.08 605.62 359.08 605.62 352.43 582.36 352.43 582.36 336.71 607.08 336.71 607.08 330.06 574.66 330.06 574.66 381.69" fill="#375289" stroke-width="0"/>
    <path d="M623.4,371.72c-1.59,0-2.91.53-3.95,1.58-1.04,1.05-1.56,2.34-1.56,3.85s.52,2.7,1.56,3.73c1.04,1.03,2.36,1.54,3.95,1.54s2.95-.51,4.05-1.52c1.11-1.01,1.66-2.26,1.66-3.75s-.55-2.8-1.66-3.85c-1.11-1.05-2.46-1.58-4.05-1.58Z" fill="#375289" stroke-width="0"/>
    <polygon points="663.53 381.69 695.95 381.69 695.95 374.96 671.23 374.96 671.23 359.08 694.49 359.08 694.49 352.43 671.23 352.43 671.23 336.71 695.95 336.71 695.95 330.06 663.53 330.06 663.53 381.69" fill="#375289" stroke-width="0"/>
    <polygon points="728.03 372.03 714.21 330.06 706.02 330.06 723.93 381.69 732 381.69 750.11 330.06 741.97 330.06 728.03 372.03" fill="#375289" stroke-width="0"/>
    <polygon points="759.98 381.69 792.4 381.69 792.4 374.96 767.68 374.96 767.68 359.08 790.94 359.08 790.94 352.43 767.68 352.43 767.68 336.71 792.4 336.71 792.4 330.06 759.98 330.06 759.98 381.69" fill="#375289" stroke-width="0"/>
    <path d="M840.37,356.73c3.15-2.84,4.72-6.55,4.72-11.14s-1.57-8.39-4.72-11.25c-3.15-2.85-7.73-4.28-13.76-4.28h-18.48v51.63h7.7v-20.71h8.31l12.47,20.71h10.01l-14.31-21.23c3.3-.64,5.99-1.88,8.05-3.74ZM815.83,336.71h10.78c3.46,0,6.09.86,7.88,2.57,1.8,1.72,2.69,4.02,2.69,6.91s-.96,5.1-2.88,6.87c-1.92,1.77-4.72,2.65-8.39,2.65h-10.09v-19.01Z" fill="#375289" stroke-width="0"/>
    <polygon points="875.45 352.43 862.55 330.06 853.36 330.06 871.51 360.41 871.51 381.69 879.25 381.69 879.25 360.41 897.77 330.06 888.65 330.06 875.45 352.43" fill="#375289" stroke-width="0"/>
    <polygon points="953.59 371.47 941.36 334.6 936.13 334.6 924.12 371.46 912.1 330.06 903.47 330.06 920.05 381.69 928.11 381.69 938.94 350.23 949.55 381.69 957.65 381.69 975.69 330.06 967.01 330.06 953.59 371.47" fill="#375289" stroke-width="0"/>
    <polygon points="1015.4 352.31 991.17 352.31 991.17 330.06 983.47 330.06 983.47 381.69 991.17 381.69 991.17 358.99 1015.4 358.99 1015.4 381.69 1023.06 381.69 1023.06 330.06 1015.4 330.06 1015.4 352.31" fill="#375289" stroke-width="0"/>
    <polygon points="1039.54 381.69 1071.96 381.69 1071.96 374.96 1047.24 374.96 1047.24 359.08 1070.5 359.08 1070.5 352.43 1047.24 352.43 1047.24 336.71 1071.96 336.71 1071.96 330.06 1039.54 330.06 1039.54 381.69" fill="#375289" stroke-width="0"/>
    <path d="M1119.93,356.73c3.15-2.84,4.72-6.55,4.72-11.14s-1.57-8.39-4.72-11.25c-3.15-2.85-7.73-4.28-13.76-4.28h-18.48v51.63h7.7v-20.71h8.31l12.47,20.71h10.01l-14.31-21.23c3.29-.64,5.99-1.88,8.05-3.74ZM1095.39,336.71h10.78c3.46,0,6.09.86,7.88,2.57,1.8,1.72,2.69,4.02,2.69,6.91s-.96,5.1-2.88,6.87c-1.92,1.77-4.72,2.65-8.39,2.65h-10.09v-19.01Z" fill="#375289" stroke-width="0"/>
    <polygon points="1139.19 381.69 1171.6 381.69 1171.6 374.96 1146.88 374.96 1146.88 359.08 1170.15 359.08 1170.15 352.43 1146.88 352.43 1146.88 336.71 1171.6 336.71 1171.6 330.06 1139.19 330.06 1139.19 381.69" fill="#375289" stroke-width="0"/>
    <path d="M1192.41,373.3c-1.11-1.05-2.46-1.58-4.05-1.58s-2.91.53-3.95,1.58c-1.04,1.05-1.56,2.34-1.56,3.85s.52,2.7,1.56,3.73c1.04,1.03,2.36,1.54,3.95,1.54s2.95-.51,4.05-1.52c1.11-1.01,1.66-2.26,1.66-3.75s-.55-2.8-1.66-3.85Z" fill="#375289" stroke-width="0"/>
  </g>
</svg>