<svg xmlns="http://www.w3.org/2000/svg" viewBox="0 0 512 512">
  <defs>
    <linearGradient id="bg" x1="0%" y1="0%" x2="100%" y2="100%">
      <stop offset="0%" style="stop-color:#3b5998"/>
      <stop offset="100%" style="stop-color:#2d4373"/>
    </linearGradient>
  </defs>
  
  <!-- Background -->
  <rect width="512" height="512" rx="96" fill="url(#bg)"/>
  
  <!-- ROAM "R" Letter -->
  <path d="M160 140h120c44.183 0 80 35.817 80 80 0 35.346-22.893 65.347-54.627 75.947L360 372h-64l-48-72h-40v72h-48V140zm48 108h72c17.673 0 32-14.327 32-32s-14.327-32-32-32h-72v64z" fill="white"/>
  
  <!-- Admin gear icon -->
  <circle cx="380" cy="380" r="80" fill="rgba(255,255,255,0.2)"/>
  <path d="M380 320c-5.5 0-10 4.5-10 10v10c-8.4 2.2-16.1 6-22.8 11l-7.1-7.1c-3.9-3.9-10.2-3.9-14.1 0s-3.9 10.2 0 14.1l7.1 7.1c-5 6.7-8.8 14.4-11 22.8h-10c-5.5 0-10 4.5-10 10s4.5 10 10 10h10c2.2 8.4 6 16.1 11 22.8l-7.1 7.1c-3.9 3.9-3.9 10.2 0 14.1s10.2 3.9 14.1 0l7.1-7.1c6.7 5 14.4 8.8 22.8 11v10c0 5.5 4.5 10 10 10s10-4.5 10-10v-10c8.4-2.2 16.1-6 22.8-11l7.1 7.1c3.9 3.9 10.2 3.9 14.1 0s3.9-10.2 0-14.1l-7.1-7.1c5-6.7 8.8-14.4 11-22.8h10c5.5 0 10-4.5 10-10s-4.5-10-10-10h-10c-2.2-8.4-6-16.1-11-22.8l7.1-7.1c3.9-3.9 3.9-10.2 0-14.1s-10.2-3.9-14.1 0l-7.1 7.1c-6.7-5-14.4-8.8-22.8-11v-10c0-5.5-4.5-10-10-10zm0 36c24.3 0 44 19.7 44 44s-19.7 44-44 44-44-19.7-44-44 19.7-44 44-44zm0 20c-13.3 0-24 10.7-24 24s10.7 24 24 24 24-10.7 24-24-10.7-24-24-24z" fill="white"/>
</svg>
